<svg width="82" height="86" viewBox="0 0 82 86" fill="none" xmlns="http://www.w3.org/2000/svg">
<g filter="url(#filter0_d)">
<path d="M23 5L38.5885 14.5V33.5L23 43L7.41154 33.5V14.5L23 5Z" fill="#currentColor"/>
<path d="M23.7806 3.71912L23 3.2434L22.2194 3.71912L6.63094 13.2191L5.91154 13.6575V14.5V33.5V34.3425L6.63094 34.7809L22.2194 44.2809L23 44.7566L23.7806 44.2809L39.3691 34.7809L40.0885 34.3425V33.5V14.5V13.6575L39.3691 13.2191L23.7806 3.71912Z" stroke="#3B336F" stroke-width="3"/>
</g>
<g filter="url(#filter1_d)">
<path d="M41 36L56.5885 45.5V64.5L41 74L25.4115 64.5V45.5L41 36Z" fill="#currentColor"/>
<path d="M41.7806 34.7191L41 34.2434L40.2194 34.7191L24.6309 44.2191L23.9115 44.6575V45.5V64.5V65.3425L24.6309 65.7809L40.2194 75.2809L41 75.7566L41.7806 75.2809L57.3691 65.7809L58.0885 65.3425V64.5V45.5V44.6575L57.3691 44.2191L41.7806 34.7191Z" stroke="#4C4499" stroke-width="3"/>
</g>
<g filter="url(#filter2_d)">
<path d="M59 4L74.5885 13.5V32.5L59 42L43.4115 32.5V13.5L59 4Z" fill="#currentColor"/>
<path d="M59.7806 2.71912L59 2.2434L58.2194 2.71912L42.6309 12.2191L41.9115 12.6575V13.5V32.5V33.3425L42.6309 33.7809L58.2194 43.2809L59 43.7566L59.7806 43.2809L75.3691 33.7809L76.0885 33.3425V32.5V13.5V12.6575L75.3691 12.2191L59.7806 2.71912Z" stroke="#6E65E5" stroke-width="3"/>
</g>
<defs>
<filter id="filter0_d" x="0.41153" y="1.4868" width="45.1769" height="53.0264" filterUnits="userSpaceOnUse" color-interpolation-filters="sRGB">
<feFlood flood-opacity="0" result="BackgroundImageFix"/>
<feColorMatrix in="SourceAlpha" type="matrix" values="0 0 0 0 0 0 0 0 0 0 0 0 0 0 0 0 0 0 127 0"/>
<feOffset dy="4"/>
<feGaussianBlur stdDeviation="2"/>
<feColorMatrix type="matrix" values="0 0 0 0 0 0 0 0 0 0 0 0 0 0 0 0 0 0 0.25 0"/>
<feBlend mode="normal" in2="BackgroundImageFix" result="effect1_dropShadow"/>
<feBlend mode="normal" in="SourceGraphic" in2="effect1_dropShadow" result="shape"/>
</filter>
<filter id="filter1_d" x="18.4115" y="32.4868" width="45.1769" height="53.0264" filterUnits="userSpaceOnUse" color-interpolation-filters="sRGB">
<feFlood flood-opacity="0" result="BackgroundImageFix"/>
<feColorMatrix in="SourceAlpha" type="matrix" values="0 0 0 0 0 0 0 0 0 0 0 0 0 0 0 0 0 0 127 0"/>
<feOffset dy="4"/>
<feGaussianBlur stdDeviation="2"/>
<feColorMatrix type="matrix" values="0 0 0 0 0 0 0 0 0 0 0 0 0 0 0 0 0 0 0.25 0"/>
<feBlend mode="normal" in2="BackgroundImageFix" result="effect1_dropShadow"/>
<feBlend mode="normal" in="SourceGraphic" in2="effect1_dropShadow" result="shape"/>
</filter>
<filter id="filter2_d" x="36.4115" y="0.486797" width="45.1769" height="53.0264" filterUnits="userSpaceOnUse" color-interpolation-filters="sRGB">
<feFlood flood-opacity="0" result="BackgroundImageFix"/>
<feColorMatrix in="SourceAlpha" type="matrix" values="0 0 0 0 0 0 0 0 0 0 0 0 0 0 0 0 0 0 127 0"/>
<feOffset dy="4"/>
<feGaussianBlur stdDeviation="2"/>
<feColorMatrix type="matrix" values="0 0 0 0 0 0 0 0 0 0 0 0 0 0 0 0 0 0 0.25 0"/>
<feBlend mode="normal" in2="BackgroundImageFix" result="effect1_dropShadow"/>
<feBlend mode="normal" in="SourceGraphic" in2="effect1_dropShadow" result="shape"/>
</filter>
</defs>
</svg>
