<?xml version="1.0" standalone="no"?>
<!DOCTYPE svg PUBLIC "-//W3C//DTD SVG 20010904//EN"
 "http://www.w3.org/TR/2001/REC-SVG-20010904/DTD/svg10.dtd">
<svg version="1.0" xmlns="http://www.w3.org/2000/svg"
 width="1361.000000pt" height="104.000000pt" viewBox="0 0 1361.000000 104.000000"
 preserveAspectRatio="xMidYMid meet">
<metadata>
Created by potrace 1.16, written by Peter Selinger 2001-2019
</metadata>
<g transform="translate(0.000000,104.000000) scale(0.100000,-0.100000)"
fill="#000000" stroke="none">
<path d="M0 520 l0 -520 6805 0 6805 0 0 520 0 520 -6805 0 -6805 0 0 -520z
m1493 313 l177 -88 0 -182 0 -183 -178 -89 -177 -89 -178 89 -177 89 0 183 0
182 173 87 c94 48 174 87 177 88 3 0 85 -39 183 -87z m11423 16 l84 -52 0
-104 0 -103 -85 -55 -84 -55 -83 52 -83 52 0 103 c1 57 6 108 12 114 10 10
144 97 152 98 2 1 41 -22 87 -50z m-1326 -299 c0 -109 -2 -122 -21 -141 -18
-18 -30 -21 -82 -17 -76 6 -97 27 -97 100 0 71 29 98 105 98 l55 0 0 40 c0 33
3 40 20 40 19 0 20 -7 20 -120z m-1218 73 c8 -10 18 -26 21 -36 8 -21 -9 -68
-30 -84 -14 -11 -13 -17 10 -57 26 -47 25 -56 -4 -56 -11 0 -28 19 -45 50 -24
45 -31 50 -61 50 l-33 0 0 -50 c0 -44 -3 -50 -20 -50 -19 0 -21 5 -18 68 l3
67 69 5 c76 5 102 24 77 54 -10 12 -32 16 -82 16 -62 0 -69 2 -69 20 0 18 7
20 83 20 68 0 87 -3 99 -17z m1708 -3 c0 -16 -7 -20 -35 -20 l-34 0 -3 -102
c-3 -98 -4 -103 -25 -106 -23 -3 -23 -2 -23 102 l0 106 -35 0 c-28 0 -35 4
-35 20 0 19 7 20 95 20 88 0 95 -1 95 -20z m510 -11 c0 -14 7 -19 25 -19 20 0
25 -5 25 -25 0 -20 -5 -25 -26 -25 -24 0 -25 -2 -22 -52 3 -47 6 -53 26 -56
31 -5 25 -36 -8 -40 -43 -5 -59 17 -64 88 -2 35 -9 66 -15 68 -17 6 -13 42 4
42 9 0 15 9 15 24 0 19 4 23 20 19 11 -3 20 -14 20 -24z m-10629 -10 c10 -20
9 -21 -30 -14 l-41 7 0 -52 c0 -48 2 -51 22 -48 26 3 38 38 14 38 -9 0 -16 7
-16 15 0 10 10 15 30 15 29 0 30 -1 30 -50 l0 -50 -44 0 c-59 0 -76 18 -76 80
0 58 18 80 65 80 25 0 38 -6 46 -21z m199 1 c0 -11 5 -20 10 -20 6 0 10 -7 10
-15 0 -8 -4 -15 -10 -15 -5 0 -10 -20 -10 -45 0 -33 -4 -45 -15 -45 -11 0 -15
12 -15 45 0 33 -4 45 -15 45 -8 0 -15 7 -15 15 0 8 7 15 15 15 8 0 15 9 15 20
0 11 7 20 15 20 8 0 15 -9 15 -20z m180 0 c0 -14 7 -20 23 -20 33 0 47 -18 47
-60 0 -45 -15 -60 -57 -60 -42 0 -53 21 -53 99 0 54 2 61 20 61 13 0 20 -7 20
-20z m520 -61 l0 -80 -47 3 -48 3 -3 49 c-3 52 6 66 46 66 15 0 22 6 22 20 0
11 7 20 15 20 12 0 15 -16 15 -81z m-170 41 c0 -6 11 -8 25 -4 16 4 25 2 25
-6 0 -7 -11 -21 -25 -32 -16 -13 -25 -29 -25 -49 0 -19 -5 -29 -15 -29 -12 0
-15 14 -15 65 0 51 3 65 15 65 8 0 15 -5 15 -10z m7902 -7 c25 -22 24 -79 -1
-93 -11 -5 -45 -10 -75 -10 -41 0 -56 -4 -56 -14 0 -19 22 -26 86 -26 47 0 54
-2 54 -20 0 -18 -7 -20 -70 -20 -93 0 -110 16 -110 100 0 81 19 100 97 100 38
0 62 -5 75 -17z m92 -65 c11 -97 28 -103 46 -15 17 86 24 97 65 97 40 0 47
-10 66 -97 7 -35 18 -63 25 -63 7 0 14 28 18 71 7 83 10 89 38 89 17 0 20 -5
15 -29 -3 -15 -9 -52 -13 -82 -9 -76 -18 -89 -59 -89 -41 0 -48 11 -65 98 -7
36 -18 62 -25 62 -7 0 -18 -26 -25 -62 -17 -86 -24 -98 -64 -98 -41 0 -52 12
-59 70 -3 25 -9 65 -13 88 -7 42 -6 44 17 40 22 -3 25 -9 33 -80z m474 66 c20
-13 22 -24 22 -93 0 -91 0 -91 -91 -91 -65 0 -99 21 -99 62 0 40 28 58 92 58
51 0 59 2 56 18 -3 14 -16 18 -71 20 -59 3 -67 5 -67 22 0 18 7 20 68 20 45 0
75 -5 90 -16z m202 -4 c0 -17 -7 -20 -39 -20 -47 0 -51 -8 -51 -97 0 -56 -2
-64 -17 -61 -16 3 -18 16 -18 91 0 101 4 107 78 107 40 0 47 -3 47 -20z m440
0 c0 -21 -1 -21 -80 -24 -33 -1 -45 -5 -45 -16 0 -11 14 -16 52 -18 41 -2 56
-8 68 -25 20 -29 19 -53 -5 -77 -18 -18 -31 -20 -88 -18 -54 2 -67 6 -70 21
-3 15 5 17 55 17 32 0 64 4 72 9 24 15 1 31 -45 31 -71 0 -104 47 -68 98 13
19 24 22 85 22 62 0 69 -2 69 -20z m460 10 c26 -14 34 -57 15 -86 -14 -21 -23
-24 -81 -24 -62 0 -64 -1 -54 -20 9 -17 21 -20 76 -20 57 0 65 -2 62 -17 -3
-15 -16 -19 -71 -21 -60 -3 -70 0 -92 22 -33 33 -35 110 -4 150 18 22 28 26
75 26 31 0 64 -4 74 -10z m230 -10 c0 -21 -1 -21 -80 -24 -33 -1 -45 -5 -45
-16 0 -11 14 -16 50 -18 27 -2 58 -10 67 -19 24 -21 23 -58 -2 -83 -18 -18
-31 -20 -88 -18 -54 2 -67 6 -70 21 -3 15 5 17 55 17 32 0 64 4 72 9 24 15 1
31 -45 31 -71 0 -104 47 -68 98 13 19 24 22 85 22 62 0 69 -2 69 -20z m-10406
-12 c26 -37 20 -48 -24 -48 -22 0 -40 -4 -40 -10 0 -5 16 -10 35 -10 24 0 35
-5 35 -15 0 -11 -12 -15 -45 -15 -35 0 -47 4 -56 21 -13 25 -4 85 14 92 30 13
67 6 81 -15z m194 10 c7 -7 12 -34 12 -61 l0 -48 -47 3 c-46 3 -48 4 -48 33 0
27 4 31 35 35 22 3 30 8 23 13 -7 4 -24 5 -38 1 -14 -3 -25 -2 -25 3 0 17 24
33 50 33 14 0 31 -5 38 -12z m230 3 c9 -5 12 -25 10 -57 -3 -47 -4 -49 -36
-52 -18 -2 -40 2 -48 9 -17 14 -19 80 -2 97 14 14 57 16 76 3z m120 -3 c7 -7
12 -34 12 -61 l0 -48 -47 3 c-46 3 -48 4 -48 33 0 27 4 31 35 35 22 3 30 8 23
13 -7 4 -24 5 -38 1 -14 -3 -25 -2 -25 3 0 17 24 33 50 33 14 0 31 -5 38 -12z"/>
<path d="M1185 785 c-20 -19 -25 -34 -25 -78 0 -41 -6 -61 -25 -87 -22 -30
-25 -44 -25 -121 0 -156 17 -169 219 -169 71 0 141 4 155 10 26 9 26 10 26
133 0 82 -4 127 -12 135 -7 7 -40 12 -80 12 -58 0 -69 -3 -78 -21 -18 -32 -4
-68 28 -75 51 -11 53 -13 50 -46 l-3 -33 -75 0 -75 0 0 130 0 130 90 5 90 5 3
33 c6 56 -7 62 -130 62 -102 0 -110 -1 -133 -25z"/>
<path d="M12761 823 l-71 -45 0 -82 c0 -93 -2 -89 88 -145 l52 -33 70 42 71
43 -3 90 -3 90 -66 43 -66 42 -72 -45z"/>
<path d="M11446 537 c-13 -9 -17 -23 -14 -52 2 -33 8 -41 31 -49 17 -6 37 -6
55 0 24 8 27 15 30 62 l3 52 -44 0 c-24 0 -51 -6 -61 -13z"/>
<path d="M2340 520 c0 -25 4 -31 18 -28 11 2 17 12 17 28 0 16 -6 26 -17 28
-14 3 -18 -3 -18 -28z"/>
<path d="M2790 521 c0 -25 4 -31 21 -31 16 0 20 5 17 27 -2 17 -10 29 -20 31
-14 3 -18 -3 -18 -27z"/>
<path d="M10473 544 c-7 -3 -13 -15 -13 -25 0 -18 6 -20 53 -17 44 3 52 6 52
23 0 16 -7 20 -40 22 -22 1 -46 0 -52 -3z"/>
<path d="M11033 464 c-8 -22 14 -34 65 -34 38 0 42 2 42 25 0 23 -3 25 -50 25
-37 0 -52 -4 -57 -16z"/>
<path d="M12147 543 c-4 -3 -7 -15 -7 -25 0 -15 8 -18 43 -18 49 0 73 16 56
37 -12 13 -80 18 -92 6z"/>
<path d="M2020 540 c0 -5 9 -10 20 -10 11 0 20 5 20 10 0 6 -9 10 -20 10 -11
0 -20 -4 -20 -10z"/>
<path d="M2220 500 c0 -5 9 -10 20 -10 11 0 20 5 20 10 0 6 -9 10 -20 10 -11
0 -20 -4 -20 -10z"/>
<path d="M2454 535 c-9 -21 3 -45 21 -45 10 0 15 10 15 30 0 32 -26 43 -36 15z"/>
<path d="M2570 500 c0 -5 9 -10 20 -10 11 0 20 5 20 10 0 6 -9 10 -20 10 -11
0 -20 -4 -20 -10z"/>
</g>
</svg>
