<svg width="40" height="46" viewBox="0 0 40 46" fill="none" xmlns="http://www.w3.org/2000/svg">
<path d="M7.36223 2.35577C5.39897 4.14616 4.90816 5.55962 4.90816 9.70577C4.90816 13.5692 4.31918 15.4539 2.45408 17.9039C0.294489 20.7308 0 22.05 0 29.3058C0 44.0058 1.66877 45.2308 21.4977 45.2308C28.4673 45.2308 35.3387 44.8539 36.713 44.2885C39.2652 43.4404 39.2652 43.3462 39.2652 31.7558C39.2652 24.0289 38.8726 19.7885 38.0873 19.0346C37.4001 18.375 34.1608 17.9039 30.2342 17.9039C24.5408 17.9039 23.461 18.1865 22.5775 19.8827C20.8106 22.8981 22.1849 26.2904 25.3261 26.95C30.3324 27.9865 30.5287 28.175 30.2342 31.2846L29.9398 34.3942H22.5775H15.2153V22.1442V9.89423L24.05 9.42308L32.8846 8.95193L33.1791 5.84231C33.7681 0.565388 32.492 3.8147e-06 20.4179 3.8147e-06C10.4053 3.8147e-06 9.61999 0.0942346 7.36223 2.35577Z" fill="black"/>
</svg>
